<svg width="80" height="80" viewBox="0 0 80 80" fill="none" xmlns="http://www.w3.org/2000/svg">
<g clip-path="url(#clip0_2_2)">
<path d="M76.757 76.649H3.243C3.10109 76.649 2.96057 76.621 2.82947 76.5667C2.69838 76.5124 2.57927 76.4327 2.47897 76.3323C2.37867 76.2319 2.29914 76.1128 2.24493 75.9816C2.19071 75.8505 2.16287 75.7099 2.163 75.568V23.4C2.163 23.1135 2.27676 22.8387 2.47927 22.636C2.68178 22.4333 2.95648 22.3193 3.243 22.319H76.757C76.8989 22.319 77.0394 22.347 77.1705 22.4013C77.3016 22.4556 77.4207 22.5353 77.521 22.6357C77.6213 22.7361 77.7009 22.8552 77.7551 22.9864C77.8093 23.1175 77.8371 23.2581 77.837 23.4V75.568C77.837 75.8544 77.7232 76.1291 77.5207 76.3317C77.3181 76.5342 77.0434 76.649 76.757 76.649ZM4.324 74.487H75.676V24.48H4.324V74.487Z" fill="#C2A18A"/>
<path d="M76.757 24.481H3.243C3.042 24.4815 2.84487 24.4258 2.67377 24.3204C2.50267 24.2149 2.3644 24.0638 2.27451 23.884C2.18462 23.7042 2.14669 23.5029 2.16497 23.3028C2.18325 23.1026 2.25703 22.9115 2.378 22.751L16.607 3.785C16.7077 3.65093 16.8381 3.5421 16.9881 3.46712C17.138 3.39215 17.3033 3.35308 17.471 3.353H62.53C62.6978 3.35292 62.8634 3.39192 63.0135 3.4669C63.1636 3.54188 63.2942 3.65079 63.395 3.785L77.623 22.753C77.7436 22.9136 77.817 23.1046 77.8351 23.3047C77.8532 23.5047 77.8152 23.7058 77.7254 23.8854C77.6356 24.0651 77.4975 24.2161 77.3266 24.3217C77.1557 24.4272 76.9588 24.4831 76.758 24.483L76.757 24.481ZM5.405 22.32H74.595L61.988 5.514H18.012L5.405 22.32Z" fill="#C2A18A"/>
<path d="M49.19 24.481H30.81C30.6498 24.4808 30.4916 24.445 30.3469 24.3762C30.2022 24.3075 30.0746 24.2074 29.9733 24.0833C29.872 23.9592 29.7995 23.8142 29.761 23.6587C29.7226 23.5031 29.7192 23.341 29.751 23.184L33.535 4.216C33.5848 3.97179 33.7176 3.75233 33.9108 3.59486C34.104 3.43738 34.3458 3.35158 34.595 3.352H45.405C45.6542 3.35158 45.896 3.43738 46.0892 3.59486C46.2824 3.75233 46.4152 3.97179 46.465 4.216L50.249 23.187C50.2812 23.3441 50.2781 23.5065 50.2397 23.6622C50.2013 23.818 50.1288 23.9632 50.0273 24.0874C49.9258 24.2116 49.7979 24.3117 49.6529 24.3803C49.5079 24.4489 49.3494 24.4843 49.189 24.484L49.19 24.481ZM32.128 22.32H47.87L44.52 5.514H35.482L32.13 22.319L32.128 22.32Z" fill="#C2A18A"/>
<path d="M49.19 44.848C48.9402 44.848 48.6981 44.7614 48.505 44.603L40 37.653L31.495 44.603C31.3368 44.7328 31.1449 44.815 30.9418 44.84C30.7387 44.8649 30.5326 44.8317 30.3477 44.7441C30.1627 44.6565 30.0065 44.5181 29.8971 44.3451C29.7878 44.1721 29.7298 43.9717 29.73 43.767V23.4C29.7299 23.2581 29.7577 23.1175 29.8119 22.9864C29.8661 22.8552 29.9457 22.7361 30.046 22.6357C30.1463 22.5353 30.2654 22.4556 30.3965 22.4013C30.5276 22.347 30.6681 22.319 30.81 22.319H49.19C49.3319 22.319 49.4724 22.347 49.6035 22.4013C49.7346 22.4556 49.8537 22.5353 49.954 22.6357C50.0543 22.7361 50.1339 22.8552 50.1881 22.9864C50.2423 23.1175 50.2701 23.2581 50.27 23.4V43.767C50.27 44.0534 50.1562 44.3281 49.9537 44.5307C49.7511 44.7332 49.4764 44.848 49.19 44.848ZM40 35.176C40.25 35.176 40.491 35.263 40.684 35.421L48.108 41.487V24.48H31.892V41.486L39.316 35.419C39.509 35.2611 39.7507 35.1759 40 35.176Z" fill="#C2A18A"/>
</g>
<defs>
<clipPath id="clip0_2_2">
<rect width="76" height="74" fill="white" transform="translate(2 3)"/>
</clipPath>
</defs>
</svg>
