<svg width="80" height="80" viewBox="0 0 80 80" fill="none" xmlns="http://www.w3.org/2000/svg">
<g clip-path="url(#clip0_2_2)">
<path d="M76.757 62.702H3.243C2.95657 62.702 2.68187 62.5882 2.47933 62.3857C2.27679 62.1831 2.163 61.9084 2.163 61.622V50.593C2.16277 50.3438 2.24864 50.1022 2.40609 49.909C2.56353 49.7159 2.78288 49.583 3.027 49.533C5.22611 49.086 7.20311 47.8926 8.6231 46.1549C10.0431 44.4172 10.8188 42.2421 10.8188 39.998C10.8188 37.7539 10.0431 35.5788 8.6231 33.8411C7.20311 32.1034 5.22611 30.91 3.027 30.463C2.78286 30.4132 2.56341 30.2806 2.40579 30.0876C2.24817 29.8947 2.16205 29.6532 2.162 29.404V18.378C2.162 18.0913 2.27589 17.8163 2.47862 17.6136C2.68135 17.4109 2.9563 17.297 3.243 17.297H76.757C76.8989 17.297 77.0394 17.325 77.1705 17.3793C77.3016 17.4336 77.4207 17.5133 77.521 17.6137C77.6213 17.7141 77.7009 17.8332 77.7551 17.9644C77.8093 18.0955 77.8371 18.2361 77.837 18.378V29.405C77.837 29.6541 77.7511 29.8957 77.5937 30.0888C77.4363 30.2819 77.217 30.4148 76.973 30.465C74.7739 30.912 72.7969 32.1054 71.3769 33.8431C69.9569 35.5808 69.1812 37.7559 69.1812 40C69.1812 42.2441 69.9569 44.4192 71.3769 46.1569C72.7969 47.8946 74.7739 49.088 76.973 49.535C77.2173 49.5848 77.4369 49.7176 77.5945 49.9107C77.7522 50.1039 77.8382 50.3457 77.838 50.595V61.62C77.8381 61.762 77.8103 61.9026 77.756 62.0338C77.7017 62.165 77.6221 62.2843 77.5217 62.3847C77.4213 62.4851 77.302 62.5647 77.1708 62.619C77.0396 62.6733 76.899 62.7021 76.757 62.702ZM4.324 60.54H75.676V51.443C73.1838 50.7384 70.9897 49.2395 69.4271 47.174C67.8646 45.1085 67.0191 42.5894 67.0191 39.9995C67.0191 37.4096 67.8646 34.8905 69.4271 32.825C70.9897 30.7595 73.1838 29.2606 75.676 28.556V19.46H4.324V28.557C6.81625 29.2616 9.01035 30.7605 10.5729 32.826C12.1354 34.8915 12.9809 37.4106 12.9809 40.0005C12.9809 42.5904 12.1354 45.1095 10.5729 47.175C9.01035 49.2405 6.81625 50.7394 4.324 51.444V60.54Z" fill="#C2A18A"/>
<path d="M56.216 23.39C55.9295 23.3897 55.6548 23.2757 55.4523 23.073C55.2498 22.8703 55.136 22.5955 55.136 22.309V18.378C55.1446 18.0971 55.2621 17.8306 55.4638 17.635C55.6655 17.4393 55.9355 17.3299 56.2165 17.3299C56.4975 17.3299 56.7675 17.4393 56.9692 17.635C57.1709 17.8306 57.2885 18.0971 57.297 18.378V22.308C57.2971 22.45 57.2693 22.5906 57.2151 22.7218C57.1609 22.853 57.0814 22.9722 56.9811 23.0727C56.8808 23.1731 56.7617 23.2529 56.6306 23.3073C56.4995 23.3618 56.358 23.3899 56.216 23.39ZM56.216 33.218C55.9296 33.218 55.6549 33.1042 55.4523 32.9017C55.2498 32.6991 55.136 32.4244 55.136 32.138V28.206C55.1446 27.9251 55.2621 27.6586 55.4638 27.463C55.6655 27.2673 55.9355 27.1579 56.2165 27.1579C56.4975 27.1579 56.7675 27.2673 56.9692 27.463C57.1709 27.6586 57.2885 27.9251 57.297 28.206V32.137C57.297 32.4235 57.1833 32.6983 56.9807 32.901C56.7782 33.1037 56.5025 33.2177 56.216 33.218ZM56.216 43.046C56.0741 43.046 55.9336 43.018 55.8025 42.9637C55.6714 42.9094 55.5523 42.8297 55.452 42.7293C55.3517 42.6289 55.2721 42.5098 55.2179 42.3786C55.1637 42.2475 55.1359 42.1069 55.136 41.965V38.035C55.1446 37.7541 55.2621 37.4876 55.4638 37.292C55.6655 37.0963 55.9355 36.9869 56.2165 36.9869C56.4975 36.9869 56.7675 37.0963 56.9692 37.292C57.1709 37.4876 57.2885 37.7541 57.297 38.035V41.966C57.2967 42.2524 57.1829 42.5269 56.9804 42.7294C56.7779 42.9319 56.5024 43.0457 56.216 43.046ZM56.216 52.874C55.9296 52.874 55.6549 52.7602 55.4523 52.5577C55.2498 52.3551 55.136 52.0804 55.136 51.794V47.863C55.1506 47.5863 55.2708 47.3257 55.4718 47.135C55.6729 46.9443 55.9394 46.838 56.2165 46.838C56.4936 46.838 56.7602 46.9443 56.9612 47.135C57.1622 47.3257 57.2824 47.5863 57.297 47.863V51.793C57.297 52.0795 57.1833 52.3543 56.9807 52.557C56.7782 52.7597 56.5025 52.8737 56.216 52.874ZM56.216 62.702C55.9296 62.702 55.6549 62.5882 55.4523 62.3857C55.2498 62.1831 55.136 61.9084 55.136 61.622V57.69C55.1506 57.4133 55.2708 57.1527 55.4718 56.962C55.6729 56.7713 55.9394 56.665 56.2165 56.665C56.4936 56.665 56.7602 56.7713 56.9612 56.962C57.1622 57.1527 57.2824 57.4133 57.297 57.69V61.621C57.297 61.9075 57.1833 62.1823 56.9807 62.385C56.7782 62.5877 56.5025 62.7017 56.216 62.702ZM22.626 51.397C22.4121 51.397 22.203 51.3336 22.0252 51.2148C21.8473 51.096 21.7087 50.927 21.6269 50.7294C21.5451 50.5317 21.5238 50.3143 21.5657 50.1045C21.6075 49.8948 21.7106 49.7021 21.862 49.551L41.896 29.506C41.9949 29.399 42.1143 29.3131 42.2472 29.2535C42.3801 29.1938 42.5237 29.1615 42.6693 29.1587C42.8149 29.1558 42.9596 29.1824 43.0948 29.2368C43.2299 29.2912 43.3526 29.3724 43.4556 29.4754C43.5586 29.5784 43.6398 29.7011 43.6942 29.8362C43.7486 29.9714 43.7752 30.1161 43.7723 30.2617C43.7695 30.4073 43.7372 30.5509 43.6775 30.6838C43.6179 30.8167 43.532 30.9361 43.425 31.035L23.39 51.08C23.1872 51.2823 22.9125 51.397 22.626 51.397ZM39.33 51.913C38.3426 51.9128 37.3774 51.6198 36.5564 51.0711C35.7355 50.5224 35.0957 49.7426 34.7179 48.8303C34.3401 47.918 34.2413 46.9141 34.434 45.9457C34.6267 44.9772 35.1022 44.0876 35.8004 43.3894C36.4986 42.6912 37.3882 42.2157 38.3567 42.023C39.3251 41.8303 40.329 41.9291 41.2413 42.3069C42.1536 42.6847 42.9334 43.3245 43.4821 44.1454C44.0308 44.9664 44.3238 45.9316 44.324 46.919C44.3224 48.2428 43.7959 49.512 42.8599 50.4482C41.9239 51.3844 40.6538 51.9111 39.33 51.913ZM39.33 44.087C38.9537 44.08 38.5797 44.1481 38.23 44.2873C37.8803 44.4264 37.5619 44.6339 37.2933 44.8976C37.0247 45.1613 36.8114 45.4759 36.6658 45.8229C36.5202 46.17 36.4452 46.5426 36.4453 46.919C36.4454 47.2954 36.5204 47.668 36.6662 48.015C36.8119 48.362 37.0253 48.6765 37.294 48.9401C37.5627 49.2037 37.8812 49.4111 38.231 49.5501C38.5807 49.6892 38.9547 49.7571 39.331 49.75C40.0727 49.7361 40.7794 49.4316 41.299 48.9021C41.8187 48.3726 42.1098 47.6604 42.1098 46.9185C42.1098 46.1766 41.8187 45.4644 41.299 44.9349C40.7794 44.4054 40.0717 44.1009 39.33 44.087ZM25.534 38.008C24.5463 38.008 23.5808 37.7151 22.7596 37.1664C21.9384 36.6177 21.2983 35.8378 20.9202 34.9254C20.5422 34.0129 20.4433 33.0088 20.6359 32.0401C20.8285 31.0714 21.304 30.1815 22.0024 29.4831C22.7007 28.7846 23.5904 28.3089 24.5591 28.1161C25.5278 27.9233 26.5319 28.022 27.4444 28.3999C28.357 28.7777 29.137 29.4176 29.6859 30.2388C30.2347 31.0599 30.5278 32.0253 30.528 33.013C30.5267 34.3372 30.0001 35.6068 29.0639 36.5432C28.1277 37.4796 26.8582 38.0064 25.534 38.008ZM25.534 30.182C25.1577 30.1749 24.7837 30.2429 24.434 30.3821C24.0843 30.5212 23.7658 30.7286 23.4972 30.9922C23.2285 31.2559 23.0151 31.5704 22.8695 31.9175C22.7238 32.2645 22.6488 32.6371 22.6488 33.0135C22.6488 33.3899 22.7238 33.7625 22.8695 34.1095C23.0151 34.4566 23.2285 34.7711 23.4972 35.0348C23.7658 35.2984 24.0843 35.5058 24.434 35.6449C24.7837 35.7841 25.1577 35.8521 25.534 35.845C26.2757 35.8311 26.9824 35.5266 27.502 34.9971C28.0217 34.4676 28.3128 33.7554 28.3128 33.0135C28.3128 32.2716 28.0217 31.5594 27.502 31.0299C26.9824 30.5004 26.2757 30.1959 25.534 30.182Z" fill="#C2A18A"/>
</g>
<defs>
<clipPath id="clip0_2_2">
<rect width="76" height="46" fill="white" transform="translate(2 17)"/>
</clipPath>
</defs>
</svg>
