<svg width="80" height="80" viewBox="0 0 80 80" fill="none" xmlns="http://www.w3.org/2000/svg">
<g clip-path="url(#clip0_2_2)">
<path d="M66.733 75.123H13.267C12.0954 75.1204 10.9725 74.6539 10.1438 73.8256C9.31514 72.9973 8.84817 71.8746 8.845 70.703V35.614C8.84527 35.3275 8.95927 35.0528 9.16197 34.8503C9.36467 34.6478 9.63948 34.534 9.926 34.534H70.073C70.215 34.5339 70.3556 34.5617 70.4868 34.6159C70.618 34.6701 70.7372 34.7496 70.8377 34.8499C70.9382 34.9502 71.0179 35.0693 71.0723 35.2004C71.1268 35.3315 71.1549 35.472 71.155 35.614V70.703C71.1518 71.8746 70.6849 72.9973 69.8562 73.8256C69.0275 74.6539 67.9046 75.1204 66.733 75.123ZM11.008 36.695V70.703C11.0088 71.3021 11.2472 71.8765 11.6708 72.3002C12.0945 72.7238 12.6689 72.9622 13.268 72.963H66.733C67.3322 72.9625 67.9068 72.7242 68.3305 72.3005C68.7542 71.8768 68.9925 71.3022 68.993 70.703V36.695H11.007H11.008Z" fill="#C2A18A"/>
<path d="M75.085 36.695H4.915C4.18572 36.6945 3.48639 36.4048 2.97033 35.8895C2.45428 35.3742 2.16359 34.6753 2.162 33.946V25.589C2.16306 24.8594 2.45351 24.16 2.96963 23.6442C3.48574 23.1285 4.18537 22.8385 4.915 22.838H75.085C75.8146 22.8385 76.5143 23.1285 77.0304 23.6442C77.5465 24.16 77.8369 24.8594 77.838 25.589V33.946C77.8367 34.6755 77.5461 35.3746 77.03 35.8901C76.5139 36.4057 75.8145 36.6945 75.085 36.695ZM4.915 25C4.75852 25 4.60846 25.0622 4.49781 25.1728C4.38716 25.2835 4.325 25.4335 4.325 25.59V33.946C4.325 34.1025 4.38716 34.2525 4.49781 34.3632C4.60846 34.4738 4.75852 34.536 4.915 34.536H75.085C75.1625 34.536 75.2392 34.5207 75.3108 34.4911C75.3824 34.4614 75.4474 34.418 75.5022 34.3632C75.557 34.3084 75.6004 34.2434 75.6301 34.1718C75.6597 34.1002 75.675 34.0235 75.675 33.946V25.589C75.6747 25.4327 75.6125 25.2829 75.5018 25.1725C75.3912 25.062 75.2413 25 75.085 25H4.915Z" fill="#C2A18A"/>
<path d="M42.23 25C42.0604 25.0001 41.8931 24.9602 41.7417 24.8836C41.5903 24.8071 41.4591 24.6959 41.3586 24.5592C41.2581 24.4225 41.1912 24.2641 41.1633 24.0968C41.1354 23.9294 41.1473 23.7579 41.198 23.596C42.534 19.32 44.93 13.542 48.752 10.263C50.3572 8.92231 52.4262 8.2685 54.5102 8.44338C56.5943 8.61827 58.5254 9.60775 59.8847 11.1972C61.244 12.7867 61.9218 14.8479 61.7711 16.9339C61.6205 19.0199 60.6535 20.9623 59.08 22.34C57.8339 23.3808 56.4481 24.2418 54.963 24.898C54.7347 25.0142 54.4725 25.0455 54.2232 24.9865C53.9739 24.9275 53.7536 24.782 53.6016 24.5758C53.4495 24.3697 53.3756 24.1162 53.3929 23.8606C53.4101 23.605 53.5176 23.3638 53.696 23.18C53.798 23.076 53.92 22.994 54.056 22.938C55.3588 22.3648 56.5752 21.6126 57.67 20.703C58.2504 20.2109 58.7279 19.6092 59.0753 18.9322C59.4226 18.2552 59.6329 17.5163 59.6941 16.7579C59.7554 15.9995 59.6663 15.2364 59.432 14.5125C59.1977 13.7885 58.8229 13.118 58.3289 12.5392C57.835 11.9604 57.2316 11.4849 56.5535 11.1397C55.8754 10.7946 55.1358 10.5867 54.3772 10.528C53.6186 10.4692 52.8558 10.5608 52.1326 10.7975C51.4095 11.0341 50.7401 11.4112 50.163 11.907C46.55 15 44.29 20.963 43.265 24.242C43.196 24.4623 43.0583 24.6547 42.8721 24.7911C42.6859 24.9275 42.4608 25.0007 42.23 25Z" fill="#C2A18A"/>
<path d="M42.23 25C41.9999 25.0001 41.7758 24.9267 41.5904 24.7905C41.4049 24.6544 41.2678 24.4625 41.199 24.243C39.918 20.149 37.091 12.703 32.563 8.823C31.0645 7.542 29.1186 6.90874 27.1532 7.06252C25.1878 7.2163 23.364 8.14453 22.083 9.643C20.802 11.1415 20.1687 13.0874 20.3225 15.0528C20.4763 17.0182 21.4045 18.842 22.903 20.123C24.2811 21.269 25.8126 22.2168 27.453 22.939C27.7132 23.0594 27.9149 23.2782 28.0137 23.5474C28.1125 23.8165 28.1004 24.1138 27.98 24.374C27.8596 24.6342 27.6408 24.8359 27.3716 24.9347C27.1025 25.0335 26.8052 25.0214 26.545 24.901C24.7228 24.0968 23.0223 23.0412 21.493 21.765C19.5676 20.1081 18.3775 17.7554 18.1838 15.2227C17.99 12.6899 18.8083 10.1835 20.4593 8.25304C22.1103 6.32253 24.4593 5.12533 26.9915 4.92381C29.5237 4.7223 32.0325 5.53292 33.968 7.178C38.663 11.198 41.613 18.325 43.265 23.597C43.3156 23.7591 43.3273 23.9308 43.2991 24.0982C43.271 24.2657 43.2038 24.4241 43.103 24.5607C43.0022 24.6974 42.8706 24.8083 42.719 24.8847C42.5673 24.961 42.3998 25.0005 42.23 25ZM46.162 75.123H33.838C33.5515 75.123 33.2767 75.0093 33.074 74.8067C32.8713 74.6042 32.7573 74.3295 32.757 74.043V35.613C32.7573 35.3266 32.8711 35.0521 33.0736 34.8496C33.2761 34.6471 33.5507 34.5333 33.837 34.533H46.162C46.4485 34.533 46.7233 34.6468 46.926 34.8493C47.1287 35.0518 47.2427 35.3265 47.243 35.613V74.041C47.243 74.3275 47.1292 74.6023 46.9267 74.805C46.7242 75.0077 46.4495 75.1217 46.163 75.122L46.162 75.123ZM34.92 72.961H45.08V36.695H34.92V72.961Z" fill="#C2A18A"/>
</g>
<defs>
<clipPath id="clip0_2_2">
<rect width="76" height="72" fill="white" transform="translate(2 4)"/>
</clipPath>
</defs>
</svg>
